<svg width="280" height="280" viewBox="0 0 280 280" fill="none" xmlns="http://www.w3.org/2000/svg">
<path d="M115.932 180.833C114.89 176.796 112.786 173.111 109.837 170.163C106.889 167.214 103.204 165.11 99.1666 164.068L27.5916 145.612C26.3705 145.265 25.2957 144.529 24.5304 143.517C23.7651 142.504 23.3511 141.269 23.3511 140C23.3511 138.731 23.7651 137.496 24.5304 136.483C25.2957 135.47 26.3705 134.735 27.5916 134.388L99.1666 115.92C103.203 114.879 106.886 112.777 109.835 109.83C112.783 106.884 114.888 103.202 115.932 99.1666L134.388 27.5916C134.731 26.3656 135.466 25.2855 136.48 24.5162C137.495 23.7468 138.733 23.3303 140.006 23.3303C141.279 23.3303 142.517 23.7468 143.531 24.5162C144.545 25.2855 145.28 26.3656 145.623 27.5916L164.068 99.1666C165.11 103.204 167.214 106.889 170.163 109.837C173.111 112.786 176.796 114.89 180.833 115.932L252.408 134.377C253.639 134.716 254.725 135.45 255.498 136.466C256.272 137.482 256.691 138.723 256.691 140C256.691 141.277 256.272 142.518 255.498 143.534C254.725 144.55 253.639 145.284 252.408 145.623L180.833 164.068C176.796 165.11 173.111 167.214 170.163 170.163C167.214 173.111 165.11 176.796 164.068 180.833L145.612 252.408C145.269 253.634 144.534 254.714 143.52 255.484C142.505 256.253 141.267 256.669 139.994 256.669C138.721 256.669 137.483 256.253 136.469 255.484C135.454 254.714 134.72 253.634 134.377 252.408L115.932 180.833Z" fill="black"/>
</svg>
